<?xml version="1.0" encoding="utf-8"?>
<!-- Generator: Adobe Illustrator 21.0.1, SVG Export Plug-In . SVG Version: 6.00 Build 0)  -->
<svg version="1.1" id="Layer_1" xmlns="http://www.w3.org/2000/svg" xmlns:xlink="http://www.w3.org/1999/xlink" x="0px" y="0px"
	 viewBox="0 0 81 81" style="enable-background:new 0 0 81 81;" xml:space="preserve">
<path d="M23.2,26.7l0.3,2.1c-3.4-0.3-1.5-6.5,2.4-5.5c2.7,0.7,1.2,2.9,1.2,5.2c0.3-0.3,0.1,0,0.4-0.5c0.8-1.2,2.5-4,4.1-4
	c3,0,0.7,4.3,0.6,5.1c1.2-0.9,2.4-3.8,4.7-4.4c3.8-1,0.9,4.8,0.6,5.5c-1,2.4-3.1,6.1,1.9,4.9c-0.1-1.1-0.3-0.9-0.3-2.4
	c0-3.2,4.8-4.2,4.8-1.2c0,2.1-1.7,2.3-2.1,3.9c1.9,0.9,2.9,0.7,3.6-1.2c1.3-3.6,0.4-3.8,2.4-3.9c0,1.5-0.6,1.9-0.9,3.3
	c1.3-0.9,1.5-2.7,3.9-2.7c3.5,0-4.5,7.3,2.4,5.7c0-1.5,1-4.4,1.5-5.4c0.8,0.1,0.8,0.1,1.5,0.3c-0.1,1.1-3.2,6.5-0.6,5.4
	c0.3-0.1,0.4-0.2,0.7-0.5c1.7-1.7,1.5-4.6,2.9-4.6c1.5,0,0.5,1-0.3,3c-1.2,3-0.2,1.7,0.3,3.6c-2.6,0-1.9-0.5-1.8-2.4
	c-1.9,1.3-1.4,2.5-3.9,1.6c-1-0.4-2.2-0.1-3.9-0.1c-0.2-0.3-0.9-1-0.9-1.2c0-1.8,1.2-2.2,1.2-4.2c-1.3,0.1-1.9,1-2.4,1.8
	c-1.2,1.8-0.8,1.6-1.5,3c-2.9-0.1,0.8-0.3-2.7-0.3c-1.4,0-1.5-0.3-2.4-0.6c-1.7-0.6-6.3,1.1-6.3-2.1c0-2.1,5.6-12.4-0.1-6.2
	c-1.6,1.7-2.3,3-3.3,5.1c-1.3,2.6-0.6,2.5-2.9,2l2.1-4.8c4.4-9.1-3.3-3.3-5.1,4.5c-4.5,0,0.9-3.3,0.9-9L25,24.3
	C24,24.8,23.2,25.2,23.2,26.7z M17.5,12.8v54.9l34.4,3.6c2.1,0.2,3.7,0.2,5.8,0.5l5.6,0.7V20.4l-40.4-4.2c-1.7-0.1-1.7,0.4-2.1-0.9
	l41.3-3.3c-0.1-1.2-0.3-1.2-0.3-2.7l-27.5,2.4C29.4,11.9,21.3,12.8,17.5,12.8z"/>
<path d="M28,15.9l30.8,3c1.8,0.1,3.1,1.2,3.3-0.9l-6.9-0.3c-2-0.2-5.1-0.3-7-0.5l-14.4-0.9l29,0.6v-1.2H36.2
	C33,15.6,31.1,15.9,28,15.9z M30.1,15v0.3c2.7,0,5.4,0,8.1,0c3,0,4.8-0.3,7.8-0.3l12.4,0c1.8,0,2.4-0.3,3.9-0.3v-1.2L50.3,14
	c-1.9,0-2.6,0.3-4.2,0.3C40.7,14.5,36.2,15,30.1,15z M40.7,33.1c0,1.6-0.1,0.4,0.3,1.2c0.8-0.2,0.7-0.1,1.3-0.8
	C44.9,30.6,40.7,29.7,40.7,33.1z M29.2,15.3L29.2,15.3C29.3,15.2,29.2,15.2,29.2,15.3z"/>
</svg>
